<svg xmlns="http://www.w3.org/2000/svg" width="914" height="500" viewBox="0 0 914 500"><style type="text/css"><![CDATA[
	.st0{fill:none;stroke:#FFFFFF;}
	.st1{fill:none;stroke:#FFFFFF;stroke-linejoin:round;}
]]></style><path class="st1" d="M149.5 470.5c-17.4 0-55.5 0-90.1-2.8-21.1-1.7-29.5-2.6-30.6-25.5-1.1-22.8 12-41.3 23.9-57.6s229.5-310 252.3-327.4c22.8-17.4 52.2-29.4 87-16.3 23.6 8.9 94.3 36.2 136.3 59.2 19.8 10.9 34 16.6 32.3 26.7-5.4 31.5-167.5 197.9-158.8 218.6 8.7 20.7 58.7 18.5 85.9 18.5 27.2 0 75 3.3 84.8-7.6 9.8-10.9 7.6-56.6 9.8-74s1.1-62 19.6-72.9c18.5-10.9 35.9-9.8 65.3 5.4 29.4 15.2 157.7 76.1 181.6 89.2s40 45.9 22.8 74c-23.9 39.2-63.1 59.8-137 60.9s-463.3-4.4-480.7-4.4-21.8 19.6-45.7 20.7c-23.9 1.2-31.5 15.3-58.7 15.3z"/><path class="st0" d="M165 299l-63-48"/></svg>