<svg xmlns="http://www.w3.org/2000/svg" width="914" height="500" viewBox="0 0 914 500"><style type="text/css"><![CDATA[
	.st0{fill:none;stroke:#FFFFFF;}
	.st1{fill:none;stroke:#FFFFFF;stroke-linejoin:round;}
]]></style><path class="st1" d="M737.8 29.4c6.2 5.4 12.7 44 16.2 53.3 3.5 9.3 38.2 51 39.4 71.8s3.5 61.4 11.6 73c8.1 11.6 60.2 38.2 56.8 60.2-3.5 22-17.4 39.4-17.4 52.1 0 12.7 9.3 22 8.1 32.4-1.2 10.4-10.4 12.7-10.4 22s17.4 35.9 8.1 40.5c-9.3 4.6-75.3 22-88 22-12.7 0-56.8-10.4-73-9.3-16.2 1.2-77.6 11.6-90.3 12.7-12.7 1.2-40.5-5.8-59.1-3.5-18.5 2.3-57.9 19.7-77.6 20.8-19.7 1.2-53.3-13.9-69.5-12.7-16.2 1.2-30.1 10.4-48.6 10.4s-64.9-25.5-75.3-27.8c-10.4-2.3-98.5 2.3-108.9-2.3-10.4-4.6-63.7-32.4-61.4-51s8.1-76.4 8.1-85.7-6.9-44-8.1-51c-1.2-7 3.5-12.7-1.2-29-4.6-16.2-47.5-68.3-34.7-96.1 12.7-27.8 38.2-73 118.1-76.4 79.9-3.5 83.4 0 98.5 12.7 15.1 12.7 78.8 31.3 111.2 31.3 76.4.3 338.2-78.5 347.4-70.4z"/><path class="st0" d="M470 51l19 71"/></svg>