<svg xmlns="http://www.w3.org/2000/svg" width="914" height="500" viewBox="0 0 914 500"><style type="text/css"><![CDATA[
	.st0{fill:none;stroke:#FFFFFF;}
	.st1{fill:none;stroke:#FFFFFF;stroke-linejoin:round;}
]]></style><path class="st1" d="M255.5 109.4l-95.2 1s-7.3-69.4-6.2-96.2c78.2-.9 70 4.5 125 4.1 115.8-.8 267.7-5.9 279.7 1.1 17.5 10.3 203.7 158.3 185.1 168.6-18.6 10.3-61.1-13.5-79.7-7.2-18.6 6.2-52.8 31-51.7 37.3 1 6.2 25.9 77.6 29 80.7 3.1 3.1 83.8 63.1 86.9 78.6s10.3 110.7-4.1 102.5c-14.5-8.3-180.6-240.7-190.4-245.3-9.8-4.6-22-4.8-32.9-9.2s-29.2-22.9-42.6-26l-195.6 5.2-7.3-95.2z"/><path class="st0" d="M611 390l50-37"/></svg>