<svg xmlns="http://www.w3.org/2000/svg" width="914" height="500" viewBox="0 0 914 500"><style type="text/css"><![CDATA[
	.st0{fill:none;stroke:#FFFFFF;}
	.st1{fill:none;stroke:#FFFFFF;stroke-linejoin:round;}
]]></style><path class="st1" d="M349.8 430.4c-7.3-6.2 0-32.3-18.7-42.7s-57.2-12.6-73.9-13.5c-36.4-2.1-128-33.3-150.9-55.2-4.2-16.7 37.5-30.2 20.8-53.1-16.7-22.9-41.6-46.8-43.7-68.7s26-95.8 30.2-103c4.2-7.3 18.7-17.7 21.9-25s4.8-16.8 5.2-22.9c6.2-4.2 22.9 2.1 31.2 1 8.3-1 44.8-32.3 67.7-30.2 22.9 2.1 68.7 33.3 91.6 56.2 22.9 22.9 30.2 32.3 30.2 36.4s-14.6 15.6-11.4 22.9c3.1 7.3 17.7 67.7 58.3 106.2 31.5 29.9 68.7 52 111.4 50 42.7-2.1 66.6-23.9 74.9-36.4 18.7-6.2 105.1-2.1 134.3 18.7 29.1 20.8 58.3 39.6 68.7 48.9 10.4 9.4 35.4 21.9 30.2 32.3-5.2 10.4-40.6 85.4-53.1 83.3-12.5-2.1-74.9-21.9-84.3-27.1-14.6 7.3-1 59.3-15.6 59.3s-133.2-11.5-184.2-17.7c-51.2-6.2-140.8-19.7-140.8-19.7z"/><path class="st0" d="M482 411l-9 75"/></svg>